<?xml version="1.0" encoding="iso-8859-1"?>
<!-- Generator: Adobe Illustrator 18.0.0, SVG Export Plug-In . SVG Version: 6.00 Build 0)  -->
<!DOCTYPE svg PUBLIC "-//W3C//DTD SVG 1.1//EN" "http://www.w3.org/Graphics/SVG/1.1/DTD/svg11.dtd">
<svg version="1.1" id="_x31_" xmlns="http://www.w3.org/2000/svg" xmlns:xlink="http://www.w3.org/1999/xlink" x="0px" y="0px"
	 viewBox="0 0 512 512" style="enable-background:new 0 0 512 512;" xml:space="preserve">
<g>
	<rect style="fill:#E67A85;" width="512" height="512"/>
	<path style="opacity:0.15;fill:#040000;" d="M512,249.6V512H209.869L91.238,393.37c-0.973-1.946-1.587-4.096-1.894-6.349
		c-0.051-0.614-0.102-1.331-0.102-2.048v-1.843l126.72-126.72l47.923-47.872l75.008-75.008l61.747,4.71L512,249.6z"/>
	<g>
		<path style="fill:#C3AC7E;" d="M386.057,381.259H125.943c-26.998,0-49.087-22.089-49.087-49.087V180.544
			c0-26.998,22.089-49.088,49.087-49.088h260.115c26.998,0,49.087,22.09,49.087,49.088v151.628
			C435.145,359.17,413.055,381.259,386.057,381.259z"/>
		<path style="fill:#C3AC7E;" d="M216.731,280.336h-90.788c-26.998,0-49.087-22.089-49.087-49.088v-76.472
			c0-26.998,22.089-49.087,49.087-49.087h90.788c26.998,0,49.088,22.089,49.088,49.087v76.472
			C265.819,258.247,243.729,280.336,216.731,280.336z"/>
		<polygon style="fill:#F0EFEF;" points="416.558,336.189 137.987,349.055 131.895,196.726 410.467,183.861 		"/>
		<defs>
			<filter id="Adobe_OpacityMaskFilter" filterUnits="userSpaceOnUse" x="100.915" y="147.826" width="291.586" height="181.634">
				<feFlood  style="flood-color:white;flood-opacity:1" result="back"/>
				<feBlend  in="SourceGraphic" in2="back" mode="normal"/>
			</filter>
		</defs>
		<mask maskUnits="userSpaceOnUse" x="100.915" y="147.826" width="291.586" height="181.634" id="SVGID_1_">
			<g style="filter:url(#Adobe_OpacityMaskFilter);">
				<defs>
					
						<filter id="Adobe_OpacityMaskFilter_1_" filterUnits="userSpaceOnUse" x="100.915" y="147.826" width="291.586" height="181.634">
						<feFlood  style="flood-color:white;flood-opacity:1" result="back"/>
						<feBlend  in="SourceGraphic" in2="back" mode="normal"/>
					</filter>
				</defs>
				<mask maskUnits="userSpaceOnUse" x="100.915" y="147.826" width="291.586" height="181.634" id="SVGID_1_">
					<g style="filter:url(#Adobe_OpacityMaskFilter_1_);">
					</g>
				</mask>
				<linearGradient id="SVGID_2_" gradientUnits="userSpaceOnUse" x1="100.9147" y1="238.6432" x2="392.5012" y2="238.6432">
					<stop  offset="0.57" style="stop-color:#F6F6F6"/>
					<stop  offset="0.6039" style="stop-color:#F6F6F6"/>
				</linearGradient>
				<polygon style="mask:url(#SVGID_1_);fill:url(#SVGID_2_);" points="392.501,299.579 115.062,329.46 100.915,177.707 
					378.354,147.826 				"/>
			</g>
		</mask>
		<linearGradient id="SVGID_3_" gradientUnits="userSpaceOnUse" x1="100.9147" y1="238.6432" x2="392.5012" y2="238.6432">
			<stop  offset="0.57" style="stop-color:#FFFFFF"/>
			<stop  offset="0.6039" style="stop-color:#F0F0F0"/>
		</linearGradient>
		<polygon style="fill:url(#SVGID_3_);" points="392.501,299.579 115.062,329.46 100.915,177.707 378.354,147.826 		"/>
		<path style="fill:#7D94A1;" d="M386.057,397.723H125.943c-26.998,0-49.087-22.09-49.087-49.088V223.612h358.289v125.022
			C435.145,375.633,413.055,397.723,386.057,397.723z"/>
		<path style="fill:#C3AC7E;" d="M386.057,406.311H125.943c-26.998,0-49.087-22.089-49.087-49.087v-118.58h358.289v118.58
			C435.145,384.222,413.055,406.311,386.057,406.311z"/>
		<g>
			<g>
				<path style="fill:#CBB389;" d="M105.582,336.842h20.237h5.304c0.48,0,0.95,0,1.408,0c0.458,0,0.819,0.088,1.081,0.262
					c0.349,0.218,0.556,0.534,0.622,0.95c0.065,0.415,0.099,0.907,0.099,1.474c0,0.218,0.01,0.425,0.032,0.622
					c0.022,0.197-0.011,0.383-0.098,0.557c-0.175,0.699-0.557,1.08-1.146,1.146c-0.589,0.066-1.32,0.098-2.193,0.098h-6.811h-9.627
					c-0.699,0-1.441-0.01-2.227-0.033c-0.785-0.021-1.375,0.121-1.767,0.426c-0.393,0.262-0.601,0.72-0.623,1.375
					c-0.022,0.655-0.033,1.31-0.033,1.965v6.484c0,0.35-0.01,0.786-0.032,1.31c-0.023,0.524,0.01,0.961,0.098,1.31v0.524
					c0.087,0.262,0.164,0.514,0.229,0.754c0.066,0.241,0.207,0.426,0.426,0.557c0.394,0.262,1.005,0.383,1.834,0.359
					c0.829-0.022,1.549-0.033,2.161-0.033h11.788c0.392,0,0.819-0.01,1.277-0.032c0.459-0.022,0.917-0.022,1.376,0
					c0.458,0.022,0.872,0.076,1.244,0.163c0.37,0.088,0.621,0.241,0.753,0.458c0.218,0.263,0.327,0.59,0.327,0.983
					c0,0.392,0,0.829,0,1.309c0,0.262,0,0.503,0,0.72c0,0.219-0.044,0.416-0.131,0.589c-0.175,0.438-0.415,0.678-0.72,0.721
					c-0.174,0.087-0.339,0.13-0.491,0.13c-0.154,0-0.338,0.024-0.557,0.066c-0.175,0.044-0.36,0.055-0.558,0.033
					c-0.196-0.021-0.382-0.033-0.556-0.033h-2.292h-11.068c-0.699,0-1.517-0.01-2.456-0.033c-0.939-0.021-1.604,0.121-1.997,0.426
					c-0.22,0.175-0.383,0.448-0.491,0.818c-0.11,0.372-0.175,0.798-0.197,1.277c-0.023,0.48-0.023,0.972,0,1.473
					c0.021,0.502,0.032,0.95,0.032,1.342v11.264c0,0.743,0.022,1.551,0.066,2.423c0.044,0.874-0.109,1.529-0.459,1.965
					c-0.13,0.175-0.327,0.274-0.588,0.295c-0.263,0.023-0.524,0.077-0.786,0.164h-1.244c-0.612,0-1.179-0.022-1.703-0.065
					c-0.524-0.044-0.896-0.262-1.113-0.655c-0.175-0.262-0.262-0.622-0.262-1.08c0-0.458,0-0.928,0-1.408v-5.24v-27.375v-7.073
					c0-0.48-0.011-1.014-0.033-1.604c-0.021-0.589,0.076-1.058,0.295-1.408c0.174-0.262,0.501-0.479,0.982-0.654
					c0.088-0.044,0.185-0.054,0.294-0.033C105.397,336.897,105.494,336.885,105.582,336.842z"/>
				<path style="fill:#CBB389;" d="M144.661,336.972c0.304,0,0.654-0.01,1.047-0.032c0.393-0.022,0.776-0.022,1.146,0
					c0.37,0.023,0.709,0.077,1.015,0.164c0.305,0.088,0.524,0.218,0.655,0.393c0.262,0.307,0.403,0.732,0.426,1.277
					c0.021,0.546,0.033,1.103,0.033,1.67v6.353v25.279v7.662c0,0.568,0,1.168,0,1.801c0,0.633-0.109,1.124-0.328,1.473
					c-0.175,0.22-0.382,0.35-0.622,0.394c-0.241,0.043-0.536,0.109-0.885,0.197h-1.244c-0.612,0-1.179-0.024-1.702-0.066
					c-0.524-0.043-0.895-0.262-1.114-0.655c-0.175-0.262-0.262-0.623-0.262-1.081c0-0.458,0-0.927,0-1.407v-5.239v-27.375v-7.073
					c0-0.48-0.011-1.015-0.032-1.604c-0.023-0.59,0.075-1.059,0.294-1.409c0.174-0.305,0.524-0.524,1.049-0.655
					c0.087-0.043,0.174-0.054,0.262-0.033C144.486,337.028,144.573,337.017,144.661,336.972z"/>
				<path style="fill:#CBB389;" d="M165.094,336.842c0.304,0,0.654-0.011,1.048-0.033c0.393-0.021,0.775-0.021,1.146,0
					c0.371,0.022,0.709,0.076,1.016,0.163c0.304,0.088,0.523,0.22,0.654,0.393c0.263,0.35,0.393,0.809,0.393,1.375
					c0,0.568,0,1.157,0,1.769v6.876v21.022v6.025c0,0.481,0,1.005,0,1.571c0,0.569,0.066,1.027,0.197,1.376
					c0.132,0.306,0.37,0.568,0.72,0.785c0.218,0.088,0.502,0.142,0.852,0.164c0.349,0.022,0.698,0.032,1.048,0.032h3.34h11.788
					h3.667c0.305,0,0.622-0.01,0.95-0.032c0.327-0.023,0.622,0.011,0.884,0.097c0.567,0.175,0.938,0.416,1.113,0.721
					c0.044,0.131,0.088,0.35,0.132,0.655c0.042,0.306,0.076,0.622,0.098,0.95c0.021,0.327,0.011,0.654-0.033,0.981
					c-0.044,0.328-0.088,0.581-0.131,0.754c-0.088,0.306-0.284,0.547-0.59,0.72c-0.219,0.175-0.535,0.262-0.95,0.262
					c-0.415,0-0.818,0-1.211,0h-4.322h-16.569h-4.257c-0.612,0-1.136-0.033-1.572-0.098c-0.437-0.066-0.763-0.272-0.982-0.623
					c-0.175-0.262-0.262-0.6-0.262-1.016c0-0.413,0-0.818,0-1.21v-4.716v-17.879v-14.211v-4.06c0-0.393,0.01-0.785,0.032-1.179
					c0.023-0.393,0.099-0.698,0.229-0.917c0.174-0.262,0.502-0.479,0.982-0.654c0.088-0.044,0.186-0.054,0.295-0.033
					C164.907,336.897,165.005,336.885,165.094,336.842z"/>
				<path style="fill:#CBB389;" d="M208.332,336.842h21.415h5.632c0.48,0,0.96-0.011,1.441-0.033
					c0.48-0.021,0.873,0.076,1.179,0.295c0.131,0.088,0.24,0.197,0.328,0.327c0.087,0.132,0.174,0.263,0.262,0.394
					c0.087,0.306,0.131,0.797,0.131,1.473c0,0.677-0.044,1.19-0.131,1.539c-0.175,0.612-0.546,0.949-1.114,1.015
					c-0.567,0.066-1.244,0.098-2.03,0.098h-6.549h-11.002c-0.699,0-1.518-0.01-2.456-0.033c-0.94-0.021-1.628,0.098-2.063,0.36
					c-0.436,0.262-0.666,0.72-0.688,1.376c-0.022,0.655-0.033,1.332-0.033,2.03v6.68c0,0.482-0.011,1.049-0.032,1.703
					c-0.023,0.655,0.01,1.18,0.097,1.572c0.132,0.524,0.394,0.874,0.787,1.048c0.174,0.088,0.479,0.175,0.916,0.262h0.655
					c0.173,0.044,0.36,0.056,0.556,0.033c0.197-0.022,0.404-0.033,0.623-0.033h2.226h12.836c0.393,0,0.83-0.01,1.311-0.032
					c0.48-0.022,0.971-0.022,1.473,0c0.502,0.022,0.959,0.065,1.375,0.131c0.414,0.065,0.73,0.163,0.95,0.294
					c0.131,0.088,0.239,0.285,0.327,0.589c0.086,0.307,0.153,0.633,0.197,0.983c0.043,0.35,0.055,0.711,0.032,1.081
					c-0.022,0.372-0.076,0.688-0.163,0.95c-0.088,0.393-0.284,0.677-0.589,0.851c-0.088,0.088-0.208,0.142-0.36,0.164
					c-0.154,0.022-0.294,0.055-0.426,0.098h-0.393c-0.219,0.044-0.436,0.055-0.655,0.033c-0.218-0.021-0.437-0.033-0.655-0.033
					h-2.423h-13.818c-0.523,0-1.038-0.01-1.538-0.033c-0.503-0.021-0.973,0-1.408,0.065c-0.437,0.066-0.819,0.186-1.146,0.361
					c-0.327,0.175-0.556,0.481-0.688,0.917c-0.088,0.262-0.12,0.568-0.097,0.917c0.021,0.35,0.032,0.699,0.032,1.048v3.666v6.223
					c0,0.611,0.021,1.167,0.065,1.669c0.044,0.502,0.219,0.863,0.524,1.081c0.305,0.219,0.655,0.338,1.049,0.36
					c0.393,0.022,0.828,0.032,1.309,0.032h4.192h12.116h3.732c0.349,0,0.698-0.01,1.048-0.032c0.348-0.023,0.654,0.011,0.917,0.097
					c0.523,0.175,0.872,0.416,1.048,0.721c0.087,0.131,0.152,0.35,0.197,0.655c0.043,0.306,0.076,0.622,0.097,0.95
					c0.021,0.327,0.011,0.654-0.033,0.981c-0.044,0.328-0.088,0.581-0.13,0.754c-0.175,0.35-0.372,0.59-0.59,0.72
					c-0.262,0.175-0.601,0.262-1.014,0.262c-0.416,0-0.819,0-1.211,0h-4.584h-17.421h-4.584c-0.612,0-1.136-0.033-1.571-0.098
					c-0.437-0.066-0.765-0.272-0.982-0.623c-0.175-0.262-0.262-0.6-0.262-1.016c0-0.413,0-0.818,0-1.21v-4.584v-17.552v-14.67v-4.06
					c0-0.393,0-0.785,0-1.179c0-0.393,0.087-0.698,0.262-0.917c0.174-0.305,0.501-0.524,0.982-0.654
					c0.087-0.044,0.173-0.054,0.262-0.033C208.158,336.897,208.245,336.885,208.332,336.842z"/>
			</g>
			<g>
				<path style="fill:#D8C39D;" d="M105.582,336.842h20.237h5.304c0.48,0,0.95,0,1.408,0c0.458,0,0.819,0.088,1.081,0.262
					c0.349,0.218,0.556,0.534,0.622,0.95c0.065,0.415,0.099,0.907,0.099,1.474c0,0.218,0.01,0.425,0.032,0.622
					c0.022,0.197-0.011,0.383-0.098,0.557c-0.175,0.699-0.557,1.08-1.146,1.146c-0.589,0.066-1.32,0.098-2.193,0.098h-6.811h-9.627
					c-0.699,0-1.441-0.01-2.227-0.033c-0.785-0.021-1.375,0.121-1.767,0.426c-0.393,0.262-0.601,0.72-0.623,1.375
					c-0.022,0.655-0.033,1.31-0.033,1.965v6.484c0,0.35-0.01,0.786-0.032,1.31c-0.023,0.524,0.01,0.961,0.098,1.31v0.524
					c0.087,0.262,0.164,0.514,0.229,0.754c0.066,0.241,0.207,0.426,0.426,0.557c0.394,0.262,1.005,0.383,1.834,0.359
					c0.829-0.022,1.549-0.033,2.161-0.033h11.788c0.392,0,0.819-0.01,1.277-0.032c0.459-0.022,0.917-0.022,1.376,0
					c0.458,0.022,0.872,0.076,1.244,0.163c0.37,0.088,0.621,0.241,0.753,0.458c0.218,0.263,0.327,0.59,0.327,0.983
					c0,0.392,0,0.829,0,1.309c0,0.262,0,0.503,0,0.72c0,0.219-0.044,0.416-0.131,0.589c-0.175,0.438-0.415,0.678-0.72,0.721
					c-0.174,0.087-0.339,0.13-0.491,0.13c-0.154,0-0.338,0.024-0.557,0.066c-0.175,0.044-0.36,0.055-0.558,0.033
					c-0.196-0.021-0.382-0.033-0.556-0.033h-2.292h-11.068c-0.699,0-1.517-0.01-2.456-0.033c-0.939-0.021-1.604,0.121-1.997,0.426
					c-0.22,0.175-0.383,0.448-0.491,0.818c-0.11,0.372-0.175,0.798-0.197,1.277c-0.023,0.48-0.023,0.972,0,1.473
					c0.021,0.502,0.032,0.95,0.032,1.342v11.264c0,0.743,0.022,1.551,0.066,2.423c0.044,0.874-0.109,1.529-0.459,1.965
					c-0.13,0.175-0.327,0.274-0.588,0.295c-0.263,0.023-0.524,0.077-0.786,0.164h-1.244c-0.612,0-1.179-0.022-1.703-0.065
					c-0.524-0.044-0.896-0.262-1.113-0.655c-0.175-0.262-0.262-0.622-0.262-1.08c0-0.458,0-0.928,0-1.408v-5.24v-27.375v-7.073
					c0-0.48-0.011-1.014-0.033-1.604c-0.021-0.589,0.076-1.058,0.295-1.408c0.174-0.262,0.501-0.479,0.982-0.654
					c0.088-0.044,0.185-0.054,0.294-0.033C105.397,336.897,105.494,336.885,105.582,336.842z"/>
				<path style="fill:#D8C39D;" d="M144.661,336.972c0.304,0,0.654-0.01,1.047-0.032c0.393-0.022,0.776-0.022,1.146,0
					c0.37,0.023,0.709,0.077,1.015,0.164c0.305,0.088,0.524,0.218,0.655,0.393c0.262,0.307,0.403,0.732,0.426,1.277
					c0.021,0.546,0.033,1.103,0.033,1.67v6.353v25.279v7.662c0,0.568,0,1.168,0,1.801c0,0.633-0.109,1.124-0.328,1.473
					c-0.175,0.22-0.382,0.35-0.622,0.394c-0.241,0.043-0.536,0.109-0.885,0.197h-1.244c-0.612,0-1.179-0.024-1.702-0.066
					c-0.524-0.043-0.895-0.262-1.114-0.655c-0.175-0.262-0.262-0.623-0.262-1.081c0-0.458,0-0.927,0-1.407v-5.239v-27.375v-7.073
					c0-0.48-0.011-1.015-0.032-1.604c-0.023-0.59,0.075-1.059,0.294-1.409c0.174-0.305,0.524-0.524,1.049-0.655
					c0.087-0.043,0.174-0.054,0.262-0.033C144.486,337.028,144.573,337.017,144.661,336.972z"/>
				<path style="fill:#D8C39D;" d="M165.094,336.842c0.304,0,0.654-0.011,1.048-0.033c0.393-0.021,0.775-0.021,1.146,0
					c0.371,0.022,0.709,0.076,1.016,0.163c0.304,0.088,0.523,0.22,0.654,0.393c0.263,0.35,0.393,0.809,0.393,1.375
					c0,0.568,0,1.157,0,1.769v6.876v21.022v6.025c0,0.481,0,1.005,0,1.571c0,0.569,0.066,1.027,0.197,1.376
					c0.132,0.306,0.37,0.568,0.72,0.785c0.218,0.088,0.502,0.142,0.852,0.164c0.349,0.022,0.698,0.032,1.048,0.032h3.34h11.788
					h3.667c0.305,0,0.622-0.01,0.95-0.032c0.327-0.023,0.622,0.011,0.884,0.097c0.567,0.175,0.938,0.416,1.113,0.721
					c0.044,0.131,0.088,0.35,0.132,0.655c0.042,0.306,0.076,0.622,0.098,0.95c0.021,0.327,0.011,0.654-0.033,0.981
					c-0.044,0.328-0.088,0.581-0.131,0.754c-0.088,0.306-0.284,0.547-0.59,0.72c-0.219,0.175-0.535,0.262-0.95,0.262
					c-0.415,0-0.818,0-1.211,0h-4.322h-16.569h-4.257c-0.612,0-1.136-0.033-1.572-0.098c-0.437-0.066-0.763-0.272-0.982-0.623
					c-0.175-0.262-0.262-0.6-0.262-1.016c0-0.413,0-0.818,0-1.21v-4.716v-17.879v-14.211v-4.06c0-0.393,0.01-0.785,0.032-1.179
					c0.023-0.393,0.099-0.698,0.229-0.917c0.174-0.262,0.502-0.479,0.982-0.654c0.088-0.044,0.186-0.054,0.295-0.033
					C164.907,336.897,165.005,336.885,165.094,336.842z"/>
				<path style="fill:#D8C39D;" d="M208.332,336.842h21.415h5.632c0.48,0,0.96-0.011,1.441-0.033
					c0.48-0.021,0.873,0.076,1.179,0.295c0.131,0.088,0.24,0.197,0.328,0.327c0.087,0.132,0.174,0.263,0.262,0.394
					c0.087,0.306,0.131,0.797,0.131,1.473c0,0.677-0.044,1.19-0.131,1.539c-0.175,0.612-0.546,0.949-1.114,1.015
					c-0.567,0.066-1.244,0.098-2.03,0.098h-6.549h-11.002c-0.699,0-1.518-0.01-2.456-0.033c-0.94-0.021-1.628,0.098-2.063,0.36
					c-0.436,0.262-0.666,0.72-0.688,1.376c-0.022,0.655-0.033,1.332-0.033,2.03v6.68c0,0.482-0.011,1.049-0.032,1.703
					c-0.023,0.655,0.01,1.18,0.097,1.572c0.132,0.524,0.394,0.874,0.787,1.048c0.174,0.088,0.479,0.175,0.916,0.262h0.655
					c0.173,0.044,0.36,0.056,0.556,0.033c0.197-0.022,0.404-0.033,0.623-0.033h2.226h12.836c0.393,0,0.83-0.01,1.311-0.032
					c0.48-0.022,0.971-0.022,1.473,0c0.502,0.022,0.959,0.065,1.375,0.131c0.414,0.065,0.73,0.163,0.95,0.294
					c0.131,0.088,0.239,0.285,0.327,0.589c0.086,0.307,0.153,0.633,0.197,0.983c0.043,0.35,0.055,0.711,0.032,1.081
					c-0.022,0.372-0.076,0.688-0.163,0.95c-0.088,0.393-0.284,0.677-0.589,0.851c-0.088,0.088-0.208,0.142-0.36,0.164
					c-0.154,0.022-0.294,0.055-0.426,0.098h-0.393c-0.219,0.044-0.436,0.055-0.655,0.033c-0.218-0.021-0.437-0.033-0.655-0.033
					h-2.423h-13.818c-0.523,0-1.038-0.01-1.538-0.033c-0.503-0.021-0.973,0-1.408,0.065c-0.437,0.066-0.819,0.186-1.146,0.361
					c-0.327,0.175-0.556,0.481-0.688,0.917c-0.088,0.262-0.12,0.568-0.097,0.917c0.021,0.35,0.032,0.699,0.032,1.048v3.666v6.223
					c0,0.611,0.021,1.167,0.065,1.669c0.044,0.502,0.219,0.863,0.524,1.081c0.305,0.219,0.655,0.338,1.049,0.36
					c0.393,0.022,0.828,0.032,1.309,0.032h4.192h12.116h3.732c0.349,0,0.698-0.01,1.048-0.032c0.348-0.023,0.654,0.011,0.917,0.097
					c0.523,0.175,0.872,0.416,1.048,0.721c0.087,0.131,0.152,0.35,0.197,0.655c0.043,0.306,0.076,0.622,0.097,0.95
					c0.021,0.327,0.011,0.654-0.033,0.981c-0.044,0.328-0.088,0.581-0.13,0.754c-0.175,0.35-0.372,0.59-0.59,0.72
					c-0.262,0.175-0.601,0.262-1.014,0.262c-0.416,0-0.819,0-1.211,0h-4.584h-17.421h-4.584c-0.612,0-1.136-0.033-1.571-0.098
					c-0.437-0.066-0.765-0.272-0.982-0.623c-0.175-0.262-0.262-0.6-0.262-1.016c0-0.413,0-0.818,0-1.21v-4.584v-17.552v-14.67v-4.06
					c0-0.393,0-0.785,0-1.179c0-0.393,0.087-0.698,0.262-0.917c0.174-0.305,0.501-0.524,0.982-0.654
					c0.087-0.044,0.173-0.054,0.262-0.033C208.158,336.897,208.245,336.885,208.332,336.842z"/>
			</g>
		</g>
		<polygon style="fill:#AB9570;" points="270.113,251.762 76.855,317.072 76.855,235.885 435.145,235.885 435.145,317.072 		"/>
	</g>
</g>
</svg>
