<?xml version="1.0" encoding="iso-8859-1"?>
<!-- Generator: Adobe Illustrator 18.0.0, SVG Export Plug-In . SVG Version: 6.00 Build 0)  -->
<!DOCTYPE svg PUBLIC "-//W3C//DTD SVG 1.1//EN" "http://www.w3.org/Graphics/SVG/1.1/DTD/svg11.dtd">
<svg version="1.1" id="_x31_" xmlns="http://www.w3.org/2000/svg" xmlns:xlink="http://www.w3.org/1999/xlink" x="0px" y="0px"
	 viewBox="0 0 512 512" style="enable-background:new 0 0 512 512;" xml:space="preserve">
<g>
	<rect style="fill:#E17B80;" width="512" height="512"/>
	<polygon style="opacity:0.1;fill:#231815;" points="274.688,82.125 246.272,110.541 221.952,134.861 215.04,141.773 
		208.589,148.224 200.858,155.955 189.082,167.731 114.586,242.227 114.586,367.104 114.586,424.141 120.32,429.875 202.445,512 
		512,512 512,273.51 405.043,166.554 400.64,162.15 360.09,121.6 325.018,86.579 320.563,82.125 	"/>
	<g>
		<polygon style="fill:#FFFEFE;" points="405.043,162.15 405.043,429.875 114.586,429.875 114.586,82.125 325.018,82.125 
			362.291,119.398 		"/>
		<rect x="106.961" y="105.417" style="fill:#B43331;" width="139.302" height="62.329"/>
		<g>
			<g>
				<path style="fill:#FFFEFE;" d="M156.928,125.85c-0.614-1.485-1.434-2.816-2.56-3.942c-1.126-1.126-2.509-2.048-4.096-2.662
					c-1.638-0.666-3.482-0.973-5.53-0.973h-15.309v39.526h7.731v-14.899h7.578c2.048,0,3.891-0.307,5.53-0.973
					c1.587-0.614,2.97-1.536,4.096-2.662c1.126-1.126,1.946-2.406,2.56-3.942c0.563-1.485,0.87-3.072,0.87-4.71
					C157.798,128.922,157.491,127.334,156.928,125.85z M148.582,134.502c-1.024,0.973-2.458,1.485-4.198,1.485h-7.219v-10.854h7.219
					c1.741,0,3.174,0.512,4.198,1.536c0.973,0.973,1.485,2.304,1.485,3.942C150.067,132.198,149.555,133.53,148.582,134.502z"/>
				<path style="fill:#FFFEFE;" d="M193.894,133.581c-0.051-1.382-0.102-2.611-0.256-3.738c-0.154-1.126-0.41-2.15-0.768-3.123
					c-0.358-0.922-0.819-1.843-1.434-2.662c-1.382-1.997-3.072-3.482-4.966-4.403c-1.946-0.922-4.25-1.382-6.963-1.382h-14.234
					v39.526h14.234c2.714,0,5.018-0.461,6.963-1.382c1.894-0.922,3.584-2.406,4.966-4.403c0.614-0.819,1.075-1.741,1.434-2.662
					c0.358-0.973,0.614-1.997,0.768-3.123c0.154-1.126,0.205-2.355,0.256-3.738c0.051-1.331,0.051-2.816,0.051-4.454
					S193.946,134.912,193.894,133.581z M186.163,142.029c0,1.178-0.102,2.099-0.205,2.918c-0.102,0.768-0.256,1.485-0.461,1.997
					c-0.205,0.563-0.512,1.075-0.87,1.536c-1.28,1.638-3.226,2.406-5.786,2.406h-5.888v-25.754h5.888
					c2.56,0,4.506,0.819,5.786,2.458c0.358,0.461,0.666,0.922,0.87,1.485c0.205,0.563,0.358,1.229,0.461,2.048
					c0.102,0.768,0.205,1.741,0.205,2.867c0.051,1.126,0.051,2.509,0.051,4.045S186.214,140.902,186.163,142.029z"/>
				<path style="fill:#FFFEFE;" d="M226.918,125.133v-6.861h-26.061v39.526h7.731v-16.026h15.616v-6.912h-15.616v-9.728H226.918z"/>
			</g>
			<g>
				<path style="fill:#FFFEFE;" d="M156.928,125.85c-0.614-1.485-1.434-2.816-2.56-3.942c-1.126-1.126-2.509-2.048-4.096-2.662
					c-1.638-0.666-3.482-0.973-5.53-0.973h-15.309v39.526h7.731v-14.899h7.578c2.048,0,3.891-0.307,5.53-0.973
					c1.587-0.614,2.97-1.536,4.096-2.662c1.126-1.126,1.946-2.406,2.56-3.942c0.563-1.485,0.87-3.072,0.87-4.71
					C157.798,128.922,157.491,127.334,156.928,125.85z M148.582,134.502c-1.024,0.973-2.458,1.485-4.198,1.485h-7.219v-10.854h7.219
					c1.741,0,3.174,0.512,4.198,1.536c0.973,0.973,1.485,2.304,1.485,3.942C150.067,132.198,149.555,133.53,148.582,134.502z"/>
			</g>
		</g>
		<polygon style="opacity:0.08;fill:#040000;" points="405.043,162.15 405.043,429.875 114.586,429.875 114.586,367.104 
			250.368,231.322 258.406,223.283 262.861,218.829 270.285,211.405 279.091,202.598 362.291,119.398 		"/>
		<polygon style="fill:#BBBBBA;" points="405.043,162.158 325.008,162.158 325.008,82.123 		"/>
		<g>
			<path style="fill:#B43331;" d="M363.571,333.875c-1.69-2.97-3.994-5.786-6.861-8.346c-2.355-2.15-5.12-4.147-8.243-5.99
				c-12.595-7.424-30.566-11.008-54.989-11.008h-2.458c-1.331-1.229-2.714-2.458-4.147-3.738
				c-9.267-8.346-16.64-17.408-22.374-27.494c11.264-24.832,16.64-46.95,15.974-65.792c-0.102-3.174-0.563-6.144-1.382-8.909
				c-1.229-4.454-3.277-8.397-6.144-11.622c-0.051-0.051-0.051-0.051-0.102-0.102c-4.557-5.12-10.906-8.038-17.357-8.038
				c-6.502,0-12.493,2.816-16.845,7.987c-4.301,5.12-6.605,12.134-6.707,20.378c-0.154,12.595,0.87,24.525,3.021,35.533
				c0.205,0.87,0.358,1.741,0.563,2.611c2.15,9.984,5.325,19.456,9.421,28.262c-4.813,9.779-9.677,18.227-13.056,23.962
				c-2.56,4.352-5.376,8.909-8.294,13.466c-13.158,2.355-24.32,5.222-34.048,8.806c-13.158,4.762-23.706,10.906-31.283,18.227
				c-4.915,4.71-8.243,9.728-9.882,14.95c-1.741,5.376-1.638,10.752,0.307,15.565c1.792,4.454,5.018,8.192,9.318,10.752
				c1.024,0.614,2.099,1.126,3.226,1.587c3.277,1.331,6.861,2.048,10.598,2.048c8.653,0,17.562-3.738,25.088-10.445
				c14.029-12.544,28.518-32.717,37.069-45.466c7.014-1.075,14.643-1.997,23.245-2.918c10.138-1.024,19.098-1.638,27.238-1.946
				c2.509,2.253,4.915,4.403,7.219,6.451c12.8,11.418,22.528,19.661,31.334,25.446c0,0.051,0.051,0.051,0.102,0.051
				c3.482,2.304,6.81,4.198,10.138,5.734c3.738,1.741,7.526,2.662,11.418,2.662c4.915,0,9.523-1.485,13.363-4.198
				c3.891-2.816,6.707-6.861,7.987-11.418C367.514,345.446,366.643,339.354,363.571,333.875z M250.368,231.322
				c-0.717-6.349-1.024-12.954-0.922-19.917c0.102-6.605,2.509-11.059,6.042-11.059c2.662,0,5.478,2.406,6.758,7.014
				c0.358,1.382,0.614,2.97,0.666,4.762c0.102,2.15,0.051,4.403-0.051,6.707c-0.307,6.502-1.434,13.414-3.379,20.838
				c-1.178,4.762-2.714,9.728-4.608,14.899C252.723,247.296,251.187,239.565,250.368,231.322z M164.966,366.08
				c-0.87-2.15,0.102-6.298,5.427-11.418c8.141-7.782,20.89-13.926,38.656-18.586c-3.379,4.608-6.707,8.806-9.933,12.646
				c-4.915,5.939-9.626,10.957-13.875,14.746c-3.635,3.277-7.629,5.325-11.418,5.837c-0.666,0.102-1.331,0.154-1.997,0.154
				C168.499,369.459,165.786,368.128,164.966,366.08z M246.784,311.654l0.358-0.563l-0.563,0.102
				c0.102-0.256,0.256-0.512,0.41-0.717c2.15-3.635,4.864-8.294,7.782-13.67l0.256,0.563l0.666-1.382
				c2.15,3.072,4.506,6.093,6.963,9.011c1.178,1.382,2.406,2.714,3.635,4.045l-0.819,0.051l0.717,0.666
				c-2.099,0.154-4.301,0.358-6.502,0.563c-1.382,0.154-2.816,0.256-4.25,0.41C252.467,311.04,249.549,311.347,246.784,311.654z
				 M332.954,343.603c-6.093-3.891-12.902-9.37-21.299-16.691c11.93,1.229,21.299,3.84,27.955,7.731
				c2.918,1.69,5.12,3.43,6.605,5.12c2.458,2.611,3.328,4.966,2.867,6.554c-0.41,1.587-2.202,2.662-4.403,2.662
				c-1.28,0-2.611-0.307-3.994-0.973c-2.355-1.126-4.813-2.509-7.424-4.198C333.158,343.808,333.056,343.706,332.954,343.603z"/>
		</g>
	</g>
</g>
</svg>
