<?xml version="1.0" encoding="UTF-8"?>
<svg width="24px" height="29px" viewBox="0 0 24 29" version="1.1" xmlns="http://www.w3.org/2000/svg" xmlns:xlink="http://www.w3.org/1999/xlink">
    <!-- Generator: Sketch 63.1 (92452) - https://sketch.com -->
    <title>编组 34备份 3</title>
    <desc>Created with Sketch.</desc>
    <g id="页面-1" stroke="none" stroke-width="1" fill="none" fill-rule="evenodd">
        <g id="gpt纯净版-定版" transform="translate(-345.000000, -333.000000)" fill-rule="nonzero">
            <g id="编组-34备份-3" transform="translate(345.500000, 333.000000)">
                <path d="M23.0617802,19.8322245 C23.0617802,19.8322245 23.0617802,19.8322245 23.0617802,19.8322245 C22.6558026,21.2229084 21.9986207,22.5275045 21.122743,23.6814792 L21.1182399,23.6868829 C19.8262989,25.2908891 15.3961436,25.3021469 12.7537212,24.587504 C9.88434234,23.8129699 7.81066222,22.0018208 7.66205973,21.8689792 C8.83663442,22.7825911 10.2826376,23.2778519 11.7706933,23.2761997 C15.4965628,23.2761997 18.5172461,20.2289481 18.5172461,16.4702059 C18.5188406,15.3918585 18.2649909,14.3284679 17.7764852,13.3671158 C17.7653802,13.3457832 17.7671841,13.3200237 17.7811538,13.300447 C17.7951236,13.2808703 17.8188964,13.2707877 17.8426808,13.2743519 C19.9276187,13.6071314 24.1299169,15.5884978 23.0617802,19.8322245 Z" id="路径" fill="#1652D8"></path>
                <path d="M23.4612057,15.0931562 C23.4648783,15.1243886 23.4452962,15.1536553 23.4150249,15.1621761 C23.3847537,15.1706969 23.3527803,15.1559421 23.3396218,15.1273798 C22.3489386,12.9938084 20.6084883,12.362473 18.5167958,11.8918984 C16.9276498,11.5348022 15.8869821,11.0160444 15.427215,10.7526127 C15.3293475,10.6886686 15.2298289,10.6272763 15.1286591,10.5684357 L15.1286591,10.5684357 C11.822479,8.55554751 11.7720442,5.08545434 11.7720442,5.08545434 L11.7720442,0.0631406799 C11.772366,0.0375868779 11.7878719,0.014678648 11.8114764,0.00488426718 C11.8350808,-0.00491011366 11.8622502,0.000290507186 11.880569,0.018109624 L19.6849013,7.68374627 L19.6849013,7.68374627 L20.264451,8.25293882 C22.0458655,10.1244798 23.1682117,12.5260065 23.4612057,15.0931562 L23.4612057,15.0931562 Z" id="路径" fill="#EA0100"></path>
                <path d="M21.1177895,23.6877835 C18.9671063,26.5193363 15.5789697,28.3453456 11.770243,28.3453456 C5.26955973,28.3453456 2.04777534e-14,23.0316811 2.04777534e-14,16.4724575 C-0.0063092565,13.4166108 1.16465174,10.4757425 3.26973054,8.2605941 L3.86278954,7.67789223 L3.86278954,7.67789223 L8.96525849,2.66458478 C8.98531983,2.64449871 9.01627673,2.64017027 9.04107793,2.6539836 C9.06587914,2.66779693 9.07849723,2.69639498 9.07198209,2.72402577 C8.98777402,3.08427422 8.85403178,3.86916552 8.94139203,4.94315621 C9.04361253,6.21393261 9.456097,7.89224006 10.6255535,9.76147919 C11.36001,10.9363394 12.3934728,12.1873022 13.8367181,13.4607804 C14.0096374,13.6132856 14.1884107,13.766091 14.373038,13.9191966 L14.373038,13.9191966 C15.0328567,14.6037455 15.4005627,15.5180852 15.3983951,16.468855 C15.3983951,18.4907494 13.7736746,20.1294295 11.7697927,20.1294295 C10.9492765,20.1305202 10.1531158,19.8506721 9.51373675,19.3364326 C9.49012192,19.3169619 9.48361568,19.2834876 9.49821788,19.2565888 C9.51282008,19.22969 9.54443558,19.2169104 9.57362805,19.2261065 C9.70031781,19.2671379 9.83268007,19.2879572 9.96584855,19.2877991 C10.5246332,19.2816065 11.015858,18.9162524 11.1825397,18.3828709 C11.3492214,17.8494894 11.153434,17.269444 10.6976032,16.9461842 L10.6976032,16.9461842 C9.90921739,16.3241046 9.17139804,15.6404924 8.49108147,14.9017742 C7.63188892,13.9601748 6.9996529,13.0424419 6.54033613,12.1706407 C5.38891809,13.597853 4.85833311,15.4273978 5.06750835,17.2491948 C5.27668359,19.0709917 6.20812407,20.7326696 7.65305352,21.8617742 L7.66160942,21.8689792 C7.81021191,22.0018208 9.88389203,23.8129699 12.7532709,24.587504 C15.3956933,25.3030475 19.8258486,25.2917897 21.1177895,23.6877835 Z" id="路径" fill="#3DC8F9"></path>
            </g>
        </g>
    </g>
</svg>